<?xml version="1.0" encoding="utf-8"?>
<svg version="1.0" xmlns="http://www.w3.org/2000/svg" width="1563.000000pt" height="1563.000000pt" viewBox="0 0 1567.132 1358.457" preserveAspectRatio="none" xmlns:bx="https://boxy-svg.com"><defs><bx:export><bx:file format="svg" units="pt"/></bx:export></defs><g><g transform="matrix(0.178023, 0, 0, -0.176127, -568.12507, 2170.909212)" fill="#000000" stroke="none" style=""><path d="M7435 12204 c-28 -7 -149 -18 -275 -24 -175 -8 -238 -15 -285 -31 -34 -10 -98 -22 -143 -26 -45 -3 -82 -9 -82 -14 0 -14 -63 -29 -120 -29 -43 0 -64 -5 -83 -20 -15 -12 -49 -23 -79 -27 -29 -3 -68 -14 -85 -25 -18 -11 -58 -22 -89 -25 -36 -4 -64 -13 -76 -25 -10 -10 -32 -18 -51 -18 -21 0 -41 -8 -52 -20 -10 -11 -34 -22 -54 -26 -20 -3 -48 -14 -62 -24 -15 -10 -44 -22 -65 -26 -22 -3 -47 -14 -56 -24 -9 -10 -33 -21 -53 -24 -20 -4 -45 -16 -56 -27 -10 -10 -32 -19 -49 -19 -19 0 -33 -7 -40 -19 -6 -12 -26 -22 -51 -26 -22 -4 -43 -13 -46 -21 -2 -7 -21 -18 -41 -25 -21 -6 -45 -20 -55 -30 -10 -11 -24 -19 -31 -19 -7 0 -21 -9 -30 -19 -10 -11 -31 -23 -47 -26 -16 -4 -34 -15 -39 -26 -6 -10 -16 -19 -23 -19 -7 0 -28 -11 -47 -25 -19 -14 -42 -25 -51 -25 -10 0 -21 -9 -24 -20 -3 -11 -10 -20 -14 -20 -7 0 -34 -19 -113 -79 -14 -12 -32 -21 -38 -21 -7 0 -21 -11 -32 -25 -11 -14 -23 -25 -28 -25 -10 0 -80 -67 -80 -77 0 -6 166 -169 325 -318 53 -49 140 -132 193 -184 95 -92 97 -93 137 -88 25 4 45 13 54 26 7 12 18 21 24 21 6 0 20 9 32 20 41 40 82 69 108 76 15 3 32 15 38 25 5 11 16 19 24 19 7 0 27 11 43 25 17 14 38 25 47 25 10 0 28 11 41 25 13 14 32 25 42 25 10 0 27 9 37 20 10 11 33 22 51 26 18 3 40 15 50 25 9 10 24 19 33 19 9 0 34 12 56 25 22 14 54 25 72 25 22 0 36 6 43 19 6 12 26 22 52 26 24 4 50 14 59 22 9 8 46 19 83 25 36 6 66 14 66 19 0 11 59 29 99 29 20 0 49 9 65 19 17 12 57 23 95 27 36 3 80 14 96 25 22 13 60 20 135 24 65 4 118 13 140 23 31 15 85 17 456 17 376 0 424 -2 440 -16 14 -12 49 -19 123 -24 68 -4 116 -13 140 -25 20 -10 71 -21 116 -24 56 -5 88 -13 107 -26 18 -14 43 -20 76 -20 35 0 57 -6 75 -20 15 -12 52 -25 83 -30 31 -5 64 -16 73 -23 9 -8 34 -18 56 -22 22 -4 48 -15 58 -26 10 -10 29 -19 42 -19 14 0 34 -9 46 -21 11 -11 36 -23 55 -26 19 -3 40 -13 47 -23 7 -9 29 -20 49 -24 21 -4 42 -15 48 -25 5 -10 25 -22 43 -25 19 -4 42 -15 52 -26 10 -11 26 -20 35 -20 9 0 25 -9 34 -19 10 -11 29 -22 44 -26 15 -4 34 -13 42 -22 14 -13 54 -40 102 -69 11 -6 28 -21 39 -33 11 -11 25 -21 31 -21 6 0 20 -9 32 -21 12 -11 53 -45 91 -75 88 -70 200 -171 274 -249 112 -117 171 -182 171 -189 0 -4 16 -23 35 -42 20 -19 46 -52 59 -72 13 -21 31 -43 40 -51 9 -7 16 -19 16 -27 0 -7 7 -17 15 -21 18 -10 85 -112 85 -129 0 -7 7 -14 15 -18 8 -3 22 -23 31 -45 8 -22 22 -42 30 -45 8 -3 14 -11 14 -19 0 -7 11 -28 25 -47 14 -18 28 -48 31 -66 3 -18 12 -35 20 -38 7 -3 19 -26 25 -51 6 -26 20 -50 30 -56 13 -6 19 -21 19 -44 0 -20 9 -44 23 -62 13 -15 27 -48 31 -73 4 -24 14 -52 23 -62 9 -10 20 -41 24 -69 5 -28 16 -60 25 -70 10 -11 19 -47 24 -89 5 -45 14 -78 26 -91 13 -15 19 -45 25 -125 4 -58 13 -112 20 -120 24 -29 28 -107 29 -504 0 -396 -5 -475 -32 -491 -8 -5 -14 -42 -18 -114 -4 -91 -8 -109 -25 -121 -15 -11 -21 -31 -26 -85 -4 -49 -13 -79 -28 -99 -14 -20 -21 -44 -21 -75 0 -32 -6 -51 -21 -66 -11 -11 -23 -37 -26 -57 -3 -20 -15 -47 -26 -59 -12 -13 -20 -37 -21 -60 l-1 -38 470 -3 c259 -1 479 0 491 3 18 4 22 15 28 66 3 34 14 76 25 93 10 17 21 57 24 89 3 31 14 72 25 90 13 21 22 60 26 112 4 54 12 88 24 105 15 20 20 52 26 169 5 109 11 153 24 175 15 27 17 72 20 364 3 292 1 337 -13 365 -17 33 -34 168 -35 270 0 42 -6 65 -20 85 -14 19 -22 50 -26 107 -4 46 -14 96 -24 117 -10 20 -23 68 -29 108 -5 40 -17 80 -25 89 -8 9 -18 43 -22 75 -4 35 -14 66 -24 76 -10 10 -21 41 -25 70 -4 30 -15 60 -26 71 -10 10 -19 27 -19 38 0 10 -11 38 -24 63 -13 25 -27 60 -31 79 -4 19 -16 42 -26 52 -11 10 -19 31 -19 47 0 19 -7 33 -19 40 -11 5 -23 24 -26 42 -4 18 -18 46 -31 61 -13 16 -24 37 -24 46 0 10 -11 30 -25 45 -14 15 -25 38 -25 51 0 14 -8 29 -19 35 -11 5 -25 26 -31 45 -6 19 -16 35 -21 35 -5 0 -15 12 -21 28 -7 15 -23 40 -35 55 -13 16 -23 35 -23 42 0 8 -9 19 -20 25 -11 6 -20 16 -20 23 -1 7 -14 28 -30 47 -17 19 -30 38 -30 42 0 6 -18 28 -71 83 -10 12 -19 26 -19 32 0 6 -11 21 -25 34 -13 13 -25 30 -25 36 0 7 -11 20 -25 29 -14 9 -25 22 -25 29 0 6 -11 17 -25 23 -14 6 -25 16 -25 21 0 6 -10 21 -22 34 -102 107 -128 136 -128 146 0 6 -11 17 -25 23 -14 6 -25 17 -25 25 0 7 -4 13 -10 13 -9 0 -134 103 -175 145 -11 11 -42 38 -69 60 -27 22 -58 49 -70 61 -11 12 -31 26 -43 33 -13 6 -23 18 -23 26 0 9 -9 15 -21 15 -20 0 -38 12 -112 71 -18 14 -40 28 -49 32 -10 4 -18 13 -18 22 0 8 -8 15 -18 15 -10 0 -33 11 -52 25 -19 14 -40 25 -47 25 -7 0 -17 9 -23 19 -5 11 -23 22 -39 26 -16 3 -37 15 -47 26 -9 10 -23 19 -30 19 -7 0 -21 8 -31 19 -10 10 -34 24 -55 30 -20 7 -39 18 -41 25 -3 8 -24 17 -46 21 -25 4 -45 14 -51 26 -7 12 -21 19 -40 19 -17 0 -40 10 -56 25 -15 14 -39 25 -54 25 -15 0 -35 8 -44 19 -9 10 -35 21 -57 25 -22 4 -52 15 -67 25 -15 11 -43 22 -63 25 -20 4 -44 15 -54 26 -11 12 -31 20 -52 20 -21 0 -40 7 -50 20 -10 12 -30 20 -48 20 -44 1 -107 17 -115 30 -4 6 -37 15 -74 21 -41 5 -78 17 -93 29 -19 15 -41 20 -83 20 -57 0 -120 15 -120 30 0 4 -38 10 -85 14 -46 3 -106 14 -132 25 -37 14 -89 20 -218 25 -191 7 -351 23 -376 37 -26 14 -217 9 -274 -7z" style="fill: rgb(43, 127, 255);"/><path d="M3237 12023 c-4 -3 -7 -163 -7 -355 l0 -348 290 0 290 0 77 -72 c43 -40 87 -82 99 -93 11 -11 66 -63 121 -115 54 -52 123 -117 151 -144 29 -26 55 -58 58 -70 9 -36 -9 -90 -34 -101 -12 -5 -22 -14 -22 -19 0 -4 -12 -23 -27 -41 -16 -17 -39 -47 -53 -64 -14 -18 -35 -43 -47 -56 -13 -12 -23 -27 -23 -34 0 -6 -9 -16 -20 -23 -11 -7 -20 -18 -20 -23 0 -6 -13 -26 -30 -45 -16 -19 -29 -41 -30 -48 0 -7 -7 -15 -16 -19 -8 -3 -22 -23 -31 -44 -8 -22 -19 -39 -24 -39 -5 0 -15 -12 -22 -27 -6 -16 -20 -34 -29 -41 -10 -7 -18 -22 -18 -33 0 -11 -11 -30 -23 -42 -13 -12 -27 -35 -31 -52 -4 -16 -16 -38 -27 -48 -10 -10 -19 -26 -19 -37 0 -10 -11 -31 -23 -47 -13 -15 -27 -41 -31 -56 -3 -15 -15 -35 -26 -45 -11 -9 -20 -29 -20 -44 0 -15 -11 -39 -25 -54 -14 -15 -25 -39 -25 -54 0 -15 -9 -39 -21 -53 -11 -15 -23 -44 -26 -64 -3 -21 -17 -51 -30 -66 -15 -19 -23 -41 -23 -67 0 -28 -7 -47 -25 -66 -20 -21 -25 -38 -25 -75 0 -35 -6 -55 -19 -68 -13 -13 -21 -41 -26 -90 -4 -44 -14 -80 -25 -94 -13 -16 -20 -49 -25 -107 -5 -58 -13 -93 -25 -111 -15 -21 -20 -54 -26 -155 -4 -83 -13 -150 -25 -186 -17 -51 -19 -90 -19 -348 0 -254 2 -299 19 -362 12 -46 22 -127 26 -218 6 -116 11 -149 25 -167 12 -16 20 -50 25 -110 4 -56 13 -94 22 -105 8 -9 20 -52 26 -95 7 -45 17 -83 26 -89 8 -6 18 -39 22 -75 12 -107 -25 -100 523 -97 l471 3 -3 40 c-2 22 -12 49 -22 60 -10 11 -22 37 -26 59 -4 21 -15 47 -24 56 -11 11 -20 42 -24 84 -4 36 -11 66 -16 66 -11 0 -28 48 -35 105 -4 28 -15 64 -25 80 -12 20 -20 62 -25 130 -5 64 -13 108 -23 124 -36 54 -35 908 0 948 11 13 18 49 23 121 5 77 12 108 26 126 12 16 21 49 25 96 5 49 13 79 24 90 10 10 21 41 25 69 4 29 15 60 25 69 9 9 20 39 24 66 3 28 15 59 25 70 10 12 22 38 25 58 4 21 15 43 25 50 10 7 21 29 25 49 3 20 15 44 26 54 11 10 20 28 20 40 0 12 9 34 20 48 12 14 26 40 31 57 6 17 20 35 30 41 10 5 19 19 19 30 0 11 11 31 25 45 14 14 25 30 25 36 0 5 11 23 25 40 14 16 25 36 25 44 0 7 11 21 25 30 14 9 25 22 25 29 0 7 7 19 16 26 9 8 27 30 40 51 13 20 39 53 59 72 19 19 35 40 35 45 0 14 45 25 73 17 12 -3 67 -50 123 -103 56 -54 135 -129 176 -168 147 -138 414 -392 530 -504 l118 -114 2 -441 3 -441 520 -3 c286 -1 530 0 543 3 l22 5 0 509 0 509 -22 6 c-13 3 -224 6 -470 6 l-447 0 -38 33 c-20 17 -76 71 -125 120 -48 48 -92 87 -97 87 -5 0 -13 9 -16 20 -3 11 -11 20 -16 20 -5 0 -45 35 -88 78 -43 42 -133 129 -201 192 -67 63 -164 157 -216 208 -52 50 -98 92 -103 92 -5 0 -12 8 -15 18 -7 21 -152 169 -316 322 -67 63 -167 158 -221 210 -110 107 -193 180 -217 194 -10 5 -39 30 -65 55 -68 64 -283 270 -339 325 -26 25 -51 46 -57 46 -5 0 -19 19 -32 43 -23 40 -24 54 -29 297 l-5 255 -346 3 c-190 1 -348 -1 -352 -5z" style="fill: rgb(43, 127, 255);"/><path d="M8205 9398 c-3 -7 -4 -240 -3 -518 l3 -505 538 -3 537 -2 0 520 0 520 -535 0 c-419 0 -537 -3 -540 -12z" style="fill: rgb(43, 127, 255);"/><path d="M4615 6740 c-3 -6 3 -22 14 -36 12 -15 21 -33 21 -41 0 -8 11 -29 25 -47 14 -18 25 -40 25 -49 0 -9 11 -27 25 -41 14 -14 25 -34 25 -45 0 -11 8 -26 18 -33 24 -19 82 -103 82 -121 0 -9 9 -19 20 -22 11 -3 20 -10 20 -14 0 -8 37 -59 84 -117 14 -18 26 -35 26 -38 0 -15 388 -396 402 -396 9 0 23 -11 32 -25 9 -14 23 -25 31 -25 7 0 17 -9 20 -20 3 -11 15 -20 25 -20 11 0 24 -9 30 -20 6 -11 17 -20 25 -20 8 0 29 -13 47 -28 18 -16 41 -31 51 -35 9 -4 17 -11 17 -17 0 -5 15 -17 33 -25 61 -30 102 -55 112 -68 6 -8 27 -20 48 -26 21 -7 41 -19 44 -27 3 -8 14 -14 24 -14 10 0 28 -9 38 -19 11 -11 38 -25 59 -31 22 -5 42 -16 45 -24 3 -7 24 -16 47 -20 22 -3 43 -13 46 -20 3 -8 26 -19 51 -26 26 -6 57 -20 71 -31 14 -10 37 -19 51 -19 15 0 38 -8 51 -17 14 -10 51 -23 83 -30 31 -6 64 -18 71 -26 8 -8 43 -17 77 -21 44 -4 68 -12 81 -26 16 -17 32 -20 96 -20 58 0 88 -5 117 -20 38 -19 59 -20 684 -20 591 0 646 1 663 17 14 12 45 19 114 23 53 4 99 11 102 18 10 15 57 32 89 32 14 0 40 9 57 19 17 11 49 23 71 27 22 4 51 15 64 25 13 11 36 19 51 19 15 0 39 9 52 20 14 10 44 23 66 28 23 6 48 17 57 25 9 9 32 19 53 23 20 4 45 15 55 25 10 11 26 19 37 19 10 0 32 11 48 25 17 14 35 25 40 25 6 0 28 11 48 25 20 14 42 25 49 25 7 0 15 6 18 14 3 8 23 19 44 26 21 7 43 18 48 25 11 14 28 18 57 16 27 -2 38 -64 38 -223 l0 -148 540 0 540 0 0 804 c0 724 -2 804 -16 810 -21 8 -1028 8 -1077 -1 -28 -4 -41 -12 -48 -29 -4 -13 -15 -24 -23 -24 -7 0 -16 -11 -20 -24 -5 -21 -192 -216 -263 -274 -60 -50 -106 -82 -117 -82 -6 0 -17 -9 -24 -20 -7 -11 -19 -20 -27 -20 -8 0 -19 -9 -25 -20 -6 -11 -26 -22 -45 -26 -20 -3 -40 -14 -45 -24 -5 -10 -23 -21 -39 -25 -16 -3 -37 -15 -47 -26 -9 -10 -25 -19 -34 -19 -9 0 -25 -9 -35 -20 -10 -11 -34 -23 -54 -26 -20 -4 -42 -15 -48 -25 -7 -9 -31 -20 -54 -24 -22 -4 -43 -13 -46 -20 -2 -8 -28 -19 -56 -25 -28 -6 -59 -18 -69 -26 -10 -10 -43 -18 -85 -21 -47 -4 -74 -11 -89 -24 -14 -14 -43 -21 -100 -25 -54 -5 -90 -13 -114 -28 -34 -20 -45 -21 -420 -21 -371 0 -386 1 -425 21 -25 13 -70 24 -120 28 -56 5 -86 13 -100 26 -14 12 -40 19 -87 22 -43 2 -73 10 -85 20 -10 9 -36 19 -58 23 -22 4 -49 15 -60 25 -11 10 -34 21 -52 25 -18 3 -42 14 -55 24 -13 10 -36 21 -53 25 -16 4 -38 16 -48 27 -10 10 -26 19 -36 19 -10 0 -26 9 -35 19 -10 11 -31 23 -46 26 -16 3 -34 13 -41 21 -7 9 -30 22 -50 31 -21 8 -40 21 -43 29 -3 8 -12 14 -20 14 -8 0 -21 9 -29 20 -7 10 -25 24 -40 29 -15 6 -27 15 -27 20 0 5 -13 14 -28 20 -34 14 -297 280 -307 310 -3 11 -13 21 -21 21 -8 0 -19 11 -23 24 -7 17 -20 25 -48 29 -66 11 -1031 8 -1038 -3z" style="fill: rgb(43, 127, 255);"/></g></g></svg>